<svg id="Layer_1" data-name="Layer 1" xmlns="http://www.w3.org/2000/svg" viewBox="0 0 774.79 577.29"><defs><style>.cls-1{fill:#dce4e6;}.cls-2{fill:#f4ad0f;}.cls-3{fill:#7d81e7;}.cls-4{fill:#38336b;}</style></defs><title>Untitled-1</title><path class="cls-1" d="M727.74,634.62c2,.53-69.93-61.25-69.93-61.25C463,526.27,404.27,748.67,404.27,748.67S571.53,593.76,727.74,634.62Z" transform="translate(-170.21 -270.45)"/><path class="cls-1" d="M760.34,738.11,392.65,757.25,286.29,385.58l-39.42,11.91c18.34,54.21,61.86,229.61,61.86,229.61L227.87,405.28l-44.94,10.27c5.39,16.74,106.54,342.76,169.83,395.92,31.28,26.25,399.18-.4,419.77-1Z" transform="translate(-170.21 -270.45)"/><path class="cls-2" d="M741.63,689.44,609.2,702.05c2.36-1.28,72.11-17.13,116-27l-35.87-31.55s-44.13-.19-84.11,11.89C514.9,682.65,407.11,751.3,407.11,751.3s57.19-6.15,78.42-9.47,95.09-12.75,157.39-20.31,118.17-15,118.17-15Z" transform="translate(-170.21 -270.45)"/><path class="cls-3" d="M393.6,842.45c1.39-.48,2.78-1,4.18-1.57,3.64-1.46,5.83-2.59,5.83-2.59l396.77,4.79.29-23.75L385,814.28a62.29,62.29,0,0,1-18.83-4.11c-9.72-4.15-21.41-12.53-30.66-29.31-.2-.48-.44-.9-.62-1.38l-.14.06.14-.07L190.4,405.65l-20.19,8L279.65,702.48h0l26.26,67.91S297.25,814,331.42,838c19,13.19,41.42,10.5,56.18,6.34,1.62-.43,3.27-1,4.92-1.51Z" transform="translate(-170.21 -270.45)"/><path class="cls-3" d="M778.6,349.74a298.28,298.28,0,0,0-229.25-16q-13.43,4.49-26.21,10.16L547,415.2A225.4,225.4,0,0,1,849.1,713.68q35.88,11.09,71.78,22.37a300.1,300.1,0,0,0-142.26-386.3Z" transform="translate(-170.21 -270.45)"/><polygon class="cls-4" points="328.32 0 206.83 174.18 408.47 239.34 376.79 144.75 352.93 73.46 328.32 0"/></svg>